<svg width="22" height="36" viewBox="0 0 22 36" fill="none" xmlns="http://www.w3.org/2000/svg">
<path d="M20.5754 16.5953L4.55499 0.575117C4.18445 0.204291 3.68982 0 3.16241 0C2.635 0 2.14037 0.204291 1.76984 0.575117L0.590044 1.75462C-0.177657 2.5232 -0.177657 3.77236 0.590044 4.53977L14.0428 17.9925L0.575117 31.4602C0.204584 31.8311 0 32.3254 0 32.8525C0 33.3802 0.204584 33.8746 0.575117 34.2457L1.75491 35.4249C2.12574 35.7957 2.62008 36 3.14749 36C3.6749 36 4.16953 35.7957 4.54006 35.4249L20.5754 19.3901C20.9469 19.0181 21.1509 18.5214 21.1497 17.9934C21.1509 17.4634 20.9469 16.967 20.5754 16.5953Z" fill="white"/>
</svg>
