<svg width="18" height="20" viewBox="0 0 18 20" fill="none" xmlns="http://www.w3.org/2000/svg">
<path d="M8.92329 10.7766C8.9452 10.7766 8.96712 10.7766 8.99341 10.7766C9.00217 10.7766 9.01094 10.7766 9.0197 10.7766C9.03285 10.7766 9.05038 10.7766 9.06352 10.7766C10.3475 10.7559 11.3861 10.3293 12.153 9.51336C13.8401 7.71588 13.5596 4.6345 13.529 4.34044C13.4194 2.13295 12.3151 1.07683 11.4036 0.583972C10.7244 0.215366 9.93119 0.0165666 9.04599 0H9.01532C9.01094 0 9.00217 0 8.99779 0H8.9715C8.48508 0 7.52976 0.0745496 6.61389 0.567405C5.69363 1.06026 4.5718 2.11638 4.46224 4.34044C4.43157 4.6345 4.15111 7.71588 5.83825 9.51336C6.60074 10.3293 7.63932 10.7559 8.92329 10.7766ZM5.63228 4.44398C5.63228 4.43156 5.63667 4.41913 5.63667 4.41085C5.78128 1.44129 8.0118 1.12239 8.96712 1.12239H8.98464C8.99341 1.12239 9.00655 1.12239 9.0197 1.12239C10.2029 1.14724 12.2143 1.60282 12.3502 4.41085C12.3502 4.42328 12.3502 4.4357 12.3545 4.44398C12.3589 4.47298 12.6657 7.28929 11.2721 8.772C10.72 9.36012 9.98378 9.65003 9.01532 9.65831C9.00656 9.65831 9.00217 9.65831 8.99341 9.65831C8.98464 9.65831 8.98026 9.65831 8.9715 9.65831C8.00742 9.65003 7.26683 9.36012 6.71906 8.772C5.32991 7.29758 5.6279 4.46883 5.63228 4.44398Z" fill="#B5B5B5"/>
<path d="M17.9988 15.8873C17.9988 15.8832 17.9988 15.8791 17.9988 15.8749C17.9988 15.8418 17.9944 15.8087 17.9944 15.7714C17.9681 14.9513 17.9111 13.0338 16.0093 12.4208C15.9961 12.4166 15.9786 12.4125 15.9654 12.4084C13.9891 11.9321 12.3458 10.8552 12.3282 10.8428C12.0609 10.6647 11.6928 10.7269 11.5044 10.9795C11.316 11.2321 11.3817 11.58 11.649 11.7581C11.7235 11.8078 13.4676 12.9551 15.6499 13.4852C16.671 13.8289 16.7849 14.8602 16.8156 15.8045C16.8156 15.8418 16.8156 15.8749 16.82 15.9081C16.8244 16.2808 16.7981 16.8565 16.7279 17.1878C16.018 17.5689 13.2354 18.8859 9.00217 18.8859C4.78652 18.8859 1.98632 17.5647 1.27202 17.1837C1.20191 16.8524 1.17123 16.2767 1.18 15.9039C1.18 15.8708 1.18438 15.8376 1.18438 15.8004C1.21505 14.8561 1.32899 13.8248 2.35004 13.4811C4.53236 12.9509 6.27646 11.7995 6.35096 11.754C6.61827 11.5759 6.684 11.228 6.49557 10.9754C6.30714 10.7227 5.93904 10.6606 5.67172 10.8387C5.65419 10.8511 4.01964 11.9279 2.03452 12.4042C2.01699 12.4084 2.00385 12.4125 1.9907 12.4166C0.0888362 13.0338 0.031868 14.9513 0.00557494 15.7672C0.00557494 15.8045 0.00557484 15.8376 0.00119267 15.8708C0.00119267 15.8749 0.00119267 15.8791 0.00119267 15.8832C-0.0031895 16.0986 -0.00757158 17.2044 0.224684 17.7594C0.268505 17.8671 0.347384 17.9582 0.452557 18.0203C0.584022 18.1031 3.7348 20 9.00656 20C14.2783 20 17.4291 18.099 17.5606 18.0203C17.6613 17.9582 17.7446 17.8671 17.7884 17.7594C18.0075 17.2085 18.0032 16.1027 17.9988 15.8873Z" fill="#B5B5B5"/>
</svg>
