<svg width="21" height="21" viewBox="0 0 21 21" fill="none" xmlns="http://www.w3.org/2000/svg">
<path d="M16.6055 13.0088C16.1749 12.5611 15.6556 12.3218 15.1052 12.3218C14.5593 12.3218 14.0355 12.5567 13.5872 13.0043L12.1846 14.4005C12.0692 14.3384 11.9538 14.2808 11.8428 14.2232C11.683 14.1434 11.5321 14.068 11.4034 13.9883C10.0896 13.155 8.89555 12.0691 7.75038 10.6641C7.19555 9.96383 6.82271 9.37435 6.55195 8.776C6.91592 8.44359 7.25326 8.09788 7.58172 7.76546C7.706 7.64136 7.83028 7.51283 7.95456 7.38873C8.88668 6.45797 8.88668 5.25241 7.95456 4.32165L6.74281 3.11166C6.60521 2.97426 6.46318 2.83243 6.33002 2.6906C6.0637 2.4158 5.78406 2.13214 5.49555 1.86621C5.065 1.44072 4.55012 1.21468 4.00861 1.21468C3.46709 1.21468 2.94333 1.44072 2.49947 1.86621C2.49503 1.87064 2.49503 1.87064 2.49059 1.87508L0.98145 3.39532C0.413304 3.96264 0.0892827 4.65406 0.0182644 5.45629C-0.0882631 6.75049 0.29346 7.95605 0.586411 8.74498C1.30547 10.6818 2.37962 12.4769 3.98197 14.4005C5.9261 16.7185 8.26527 18.549 10.9373 19.8388C11.9582 20.3219 13.3209 20.8936 14.8433 20.9911C14.9366 20.9956 15.0342 21 15.123 21C16.1483 21 17.0094 20.6321 17.6841 19.9008C17.6885 19.892 17.6974 19.8875 17.7018 19.8787C17.9326 19.5994 18.199 19.3468 18.4786 19.0764C18.6695 18.8947 18.8648 18.7041 19.0556 18.5047C19.495 18.0482 19.7259 17.5163 19.7259 16.9711C19.7259 16.4215 19.4906 15.8941 19.0423 15.4509L16.6055 13.0088ZM18.1945 17.6759C18.1901 17.6803 18.1901 17.6759 18.1945 17.6759C18.0214 17.862 17.8439 18.0304 17.653 18.2166C17.3645 18.4914 17.0715 18.7795 16.7963 19.103C16.348 19.5817 15.8198 19.8077 15.1274 19.8077C15.0608 19.8077 14.9898 19.8077 14.9232 19.8033C13.605 19.7191 12.3799 19.205 11.4611 18.7662C8.94882 17.5518 6.74281 15.8276 4.90965 13.6426C3.39607 11.8209 2.38406 10.1367 1.71383 8.32835C1.30103 7.22474 1.15012 6.36489 1.2167 5.5538C1.26109 5.03523 1.46082 4.60531 1.82923 4.23744L3.34281 2.72606C3.5603 2.52218 3.79111 2.41137 4.01748 2.41137C4.29712 2.41137 4.52349 2.5798 4.66553 2.72163C4.66996 2.72606 4.6744 2.73049 4.67884 2.73492C4.9496 2.98756 5.20704 3.24906 5.4778 3.52829C5.6154 3.67012 5.75743 3.81195 5.89947 3.95821L7.11122 5.1682C7.58172 5.63801 7.58172 6.07237 7.11122 6.54218C6.9825 6.67071 6.85822 6.79924 6.7295 6.92335C6.35665 7.30451 6.00156 7.65909 5.6154 8.0048C5.60652 8.01367 5.59764 8.0181 5.5932 8.02696C5.21148 8.40813 5.2825 8.78044 5.36239 9.03307C5.36683 9.04637 5.37127 9.05966 5.37571 9.07296C5.69085 9.8353 6.13472 10.5533 6.80939 11.4087L6.81383 11.4132C8.0389 12.9201 9.33054 14.0946 10.7553 14.9944C10.9373 15.1096 11.1238 15.2027 11.3013 15.2913C11.4611 15.3711 11.612 15.4465 11.7407 15.5262C11.7585 15.5351 11.7762 15.5484 11.794 15.5573C11.9449 15.6326 12.0869 15.6681 12.2334 15.6681C12.6018 15.6681 12.8326 15.4376 12.9081 15.3622L14.4261 13.8464C14.577 13.6957 14.8167 13.514 15.0963 13.514C15.3715 13.514 15.5979 13.6869 15.7355 13.8376C15.7399 13.842 15.7399 13.842 15.7444 13.8464L18.1901 16.2886C18.6473 16.7407 18.6473 17.206 18.1945 17.6759Z" fill="#9CC216"/>
<path d="M11.3501 4.99534C12.5131 5.19036 13.5694 5.73995 14.4128 6.58207C15.2561 7.42418 15.8021 8.47905 16.0018 9.64028C16.0507 9.93281 16.3037 10.1367 16.5922 10.1367C16.6277 10.1367 16.6587 10.1323 16.6943 10.1278C17.0227 10.0746 17.2402 9.76438 17.1869 9.4364C16.9473 8.0314 16.2815 6.75049 15.265 5.73552C14.2486 4.72055 12.9658 4.05572 11.5587 3.81638C11.2303 3.76319 10.924 3.98037 10.8663 4.30392C10.8086 4.62747 11.0217 4.94216 11.3501 4.99534Z" fill="#9CC216"/>
<path d="M20.9909 9.26355C20.5958 6.94994 19.5039 4.84465 17.8261 3.16928C16.1483 1.49391 14.0399 0.403587 11.723 0.00912211C11.399 -0.0484964 11.0927 0.173113 11.035 0.496664C10.9817 0.824646 11.1992 1.13047 11.5277 1.18809C13.5961 1.53823 15.4825 2.51774 16.9828 4.01139C18.483 5.50948 19.4595 7.39316 19.8102 9.45856C19.859 9.75109 20.112 9.95497 20.4005 9.95497C20.436 9.95497 20.4671 9.95054 20.5026 9.94611C20.8266 9.89735 21.0486 9.5871 20.9909 9.26355Z" fill="#9CC216"/>
</svg>
