<svg width="21" height="22" viewBox="0 0 21 22" fill="none" xmlns="http://www.w3.org/2000/svg">
<path d="M16.6055 13.5088C16.1749 13.0611 15.6556 12.8218 15.1052 12.8218C14.5593 12.8218 14.0355 13.0567 13.5872 13.5043L12.1846 14.9005C12.0692 14.8384 11.9538 14.7808 11.8428 14.7232C11.683 14.6434 11.5321 14.568 11.4034 14.4883C10.0896 13.655 8.89555 12.5691 7.75038 11.1641C7.19555 10.4638 6.82271 9.87435 6.55195 9.276C6.91592 8.94359 7.25326 8.59788 7.58172 8.26546C7.706 8.14136 7.83028 8.01283 7.95456 7.88873C8.88668 6.95797 8.88668 5.75241 7.95456 4.82165L6.74281 3.61166C6.60521 3.47426 6.46318 3.33243 6.33002 3.1906C6.0637 2.9158 5.78406 2.63214 5.49555 2.36621C5.065 1.94072 4.55012 1.71468 4.00861 1.71468C3.46709 1.71468 2.94333 1.94072 2.49947 2.36621C2.49503 2.37064 2.49503 2.37064 2.49059 2.37508L0.98145 3.89532C0.413304 4.46264 0.0892827 5.15406 0.0182644 5.95629C-0.0882631 7.25049 0.29346 8.45605 0.586411 9.24498C1.30547 11.1818 2.37962 12.9769 3.98197 14.9005C5.9261 17.2185 8.26527 19.049 10.9373 20.3388C11.9582 20.8219 13.3209 21.3936 14.8433 21.4911C14.9366 21.4956 15.0342 21.5 15.123 21.5C16.1483 21.5 17.0094 21.1321 17.6841 20.4008C17.6885 20.392 17.6974 20.3875 17.7018 20.3787C17.9326 20.0994 18.199 19.8468 18.4786 19.5764C18.6695 19.3947 18.8648 19.2041 19.0556 19.0047C19.495 18.5482 19.7259 18.0163 19.7259 17.4711C19.7259 16.9215 19.4906 16.3941 19.0423 15.9509L16.6055 13.5088ZM18.1945 18.1759C18.1901 18.1803 18.1901 18.1759 18.1945 18.1759C18.0214 18.362 17.8439 18.5304 17.653 18.7166C17.3645 18.9914 17.0715 19.2795 16.7963 19.603C16.348 20.0817 15.8198 20.3077 15.1274 20.3077C15.0608 20.3077 14.9898 20.3077 14.9232 20.3033C13.605 20.2191 12.3799 19.705 11.4611 19.2662C8.94882 18.0518 6.74281 16.3276 4.90965 14.1426C3.39607 12.3209 2.38406 10.6367 1.71383 8.82835C1.30103 7.72474 1.15012 6.86489 1.2167 6.0538C1.26109 5.53523 1.46082 5.10531 1.82923 4.73744L3.34281 3.22606C3.5603 3.02218 3.79111 2.91137 4.01748 2.91137C4.29712 2.91137 4.52349 3.0798 4.66553 3.22163C4.66996 3.22606 4.6744 3.23049 4.67884 3.23492C4.9496 3.48756 5.20704 3.74906 5.4778 4.02829C5.6154 4.17012 5.75743 4.31195 5.89947 4.45821L7.11122 5.6682C7.58172 6.13801 7.58172 6.57237 7.11122 7.04218C6.9825 7.17071 6.85822 7.29924 6.7295 7.42335C6.35665 7.80451 6.00156 8.15909 5.6154 8.5048C5.60652 8.51367 5.59764 8.5181 5.5932 8.52696C5.21148 8.90813 5.2825 9.28044 5.36239 9.53307C5.36683 9.54637 5.37127 9.55966 5.37571 9.57296C5.69085 10.3353 6.13472 11.0533 6.80939 11.9087L6.81383 11.9132C8.0389 13.4201 9.33054 14.5946 10.7553 15.4944C10.9373 15.6096 11.1238 15.7027 11.3013 15.7913C11.4611 15.8711 11.612 15.9465 11.7407 16.0262C11.7585 16.0351 11.7762 16.0484 11.794 16.0573C11.9449 16.1326 12.0869 16.1681 12.2334 16.1681C12.6018 16.1681 12.8326 15.9376 12.9081 15.8622L14.4261 14.3464C14.577 14.1957 14.8167 14.014 15.0963 14.014C15.3715 14.014 15.5979 14.1869 15.7355 14.3376C15.7399 14.342 15.7399 14.342 15.7444 14.3464L18.1901 16.7886C18.6473 17.2407 18.6473 17.706 18.1945 18.1759Z" fill="#B5B5B5"/>
<path d="M11.3501 5.49534C12.5131 5.69036 13.5694 6.23995 14.4128 7.08207C15.2561 7.92418 15.8021 8.97905 16.0018 10.1403C16.0507 10.4328 16.3037 10.6367 16.5922 10.6367C16.6277 10.6367 16.6587 10.6323 16.6943 10.6278C17.0227 10.5746 17.2402 10.2644 17.1869 9.9364C16.9473 8.5314 16.2815 7.25049 15.265 6.23552C14.2486 5.22055 12.9658 4.55572 11.5587 4.31638C11.2303 4.26319 10.924 4.48037 10.8663 4.80392C10.8086 5.12747 11.0217 5.44216 11.3501 5.49534Z" fill="#B5B5B5"/>
<path d="M20.9909 9.76355C20.5958 7.44994 19.5039 5.34465 17.8261 3.66928C16.1483 1.99391 14.0399 0.903587 11.723 0.509122C11.399 0.451504 11.0927 0.673113 11.035 0.996664C10.9817 1.32465 11.1992 1.63047 11.5277 1.68809C13.5961 2.03823 15.4825 3.01774 16.9828 4.51139C18.483 6.00948 19.4595 7.89316 19.8102 9.95856C19.859 10.2511 20.112 10.455 20.4005 10.455C20.436 10.455 20.4671 10.4505 20.5026 10.4461C20.8266 10.3974 21.0486 10.0871 20.9909 9.76355Z" fill="#B5B5B5"/>
</svg>
