<svg width="51" height="50" viewBox="0 0 51 50" fill="none" xmlns="http://www.w3.org/2000/svg">
<path d="M16.6803 34.3815C18.7742 37.3338 20.8648 39.9742 22.2502 41.6749C22.4519 41.9224 22.6409 42.152 22.8239 42.3731H18.643C18.1749 42.3731 17.7956 42.7524 17.7956 43.2205C17.7956 43.6885 18.1749 44.0678 18.643 44.0678H32.201C32.669 44.0678 33.0484 43.6885 33.0484 43.2205C33.0484 42.7524 32.669 42.3731 32.201 42.3731H28.0201C28.2031 42.152 28.392 41.9223 28.5946 41.6749C29.9792 39.9801 32.0689 37.3338 34.1636 34.3815C36.242 31.5111 38.1126 28.4961 39.7615 25.3594C41.4918 21.9613 42.3698 19.1404 42.3698 16.9745C42.3755 12.474 40.5897 8.1563 37.4066 4.97463C37.194 4.75418 36.879 4.6656 36.5827 4.74295C36.2864 4.82031 36.0548 5.05149 35.977 5.34771C35.8993 5.64393 35.9874 5.95902 36.2075 6.17193C39.0726 9.03623 40.68 12.9231 40.675 16.9744C40.675 18.8709 39.8598 21.4333 38.2515 24.5899C36.6399 27.6539 34.8116 30.599 32.7808 33.4028C30.7148 36.3169 28.6497 38.9277 27.2812 40.6055C26.8262 41.1631 26.4169 41.6562 26.0678 42.0732C25.9048 42.2593 25.6694 42.366 25.4221 42.366C25.1747 42.366 24.9394 42.2592 24.7764 42.0732C24.4273 41.6563 24.018 41.1631 23.5629 40.6055C22.1944 38.9286 20.1293 36.3177 18.0634 33.4028C16.0326 30.599 14.2043 27.6539 12.5927 24.5899C10.9827 21.4333 10.1692 18.8709 10.1692 16.9744C10.1687 10.8366 13.8394 5.29369 19.4905 2.8985C23.2877 1.30627 27.5652 1.30627 31.3624 2.8985C31.6412 3.01667 31.9619 2.97724 32.2037 2.79482C32.4455 2.6125 32.5716 2.31499 32.5346 2.0144C32.4975 1.71381 32.303 1.45582 32.0242 1.33765C23.3949 -2.30201 13.4489 1.74102 9.80656 10.3691C8.92325 12.459 8.47023 14.7055 8.4745 16.9744C8.4745 19.1403 9.35244 21.9613 11.0828 25.3636C12.7314 28.4989 14.6022 31.5125 16.6803 34.3815Z" fill="#9CC216"/>
<path d="M25.4219 9.3251C25.8899 9.3251 26.2692 8.94576 26.2692 8.47775C26.2692 8.00973 25.8899 7.63039 25.4219 7.63039C21.3793 7.6303 17.8995 10.4861 17.1107 14.451C16.3219 18.416 18.4439 22.386 22.1788 23.9331C25.9137 25.4802 30.2214 24.1735 32.4674 20.8122C34.7135 17.4509 34.2723 12.971 31.4137 10.1124C31.2009 9.89213 30.8859 9.80374 30.5896 9.8813C30.2934 9.95886 30.062 10.1902 29.9845 10.4865C29.9069 10.7828 29.9953 11.0978 30.2155 11.3106C32.5025 13.5974 32.8555 17.1812 31.0588 19.8703C29.2621 22.5594 25.816 23.6049 22.8281 22.3674C19.8402 21.1299 18.1425 17.954 18.7732 14.7819C19.404 11.6099 22.1878 9.3252 25.4219 9.3251Z" fill="#9CC216"/>
<path d="M50.5241 46.2466L45.3126 36.9253C44.8414 36.0971 43.9597 35.5881 43.0069 35.5941H36.9676C36.4996 35.5941 36.1202 35.9734 36.1202 36.4414C36.1202 36.9095 36.4996 37.2888 36.9676 37.2888H43.0069C43.3461 37.2822 43.6626 37.4591 43.8348 37.7514L49.0445 47.0727C49.1864 47.3152 49.1835 47.616 49.0369 47.8557C48.8638 48.1417 48.5508 48.313 48.2166 48.3049H2.62723C2.29337 48.3128 1.98077 48.1414 1.80778 47.8557C1.66121 47.616 1.65833 47.3152 1.80013 47.0727L7.00988 37.7514C7.18177 37.4592 7.49795 37.2823 7.83688 37.2888H13.8762C14.3442 37.2888 14.7236 36.9095 14.7236 36.4414C14.7236 35.9734 14.3442 35.5941 13.8762 35.5941H7.83698C6.88366 35.5878 6.00126 36.0969 5.52957 36.9253L0.318928 46.2466C-0.115524 47.014 -0.105494 47.9554 0.345243 48.7134C0.820111 49.5206 1.6909 50.0114 2.62723 49.9998H48.2166C49.1527 50.0111 50.0232 49.5204 50.4978 48.7134C50.9486 47.9553 50.9586 47.014 50.5241 46.2466Z" fill="#9CC216"/>
<path d="M41.5223 39.8311H38.1328C37.9655 39.8313 37.8019 39.8808 37.6625 39.9734L35.1203 41.6683C34.731 41.928 34.6259 42.4542 34.8856 42.8436C35.1454 43.233 35.6716 43.338 36.0609 43.0784L38.387 41.526H41.5223C41.9903 41.526 42.3697 41.1465 42.3697 40.6786C42.3697 40.2104 41.9903 39.8311 41.5223 39.8311Z" fill="#9CC216"/>
<path d="M36.438 45.7627C36.438 46.2307 36.8173 46.6101 37.2853 46.6101H44.0645C44.5325 46.6101 44.9118 46.2307 44.9118 45.7627C44.9118 45.2947 44.5325 44.9154 44.0645 44.9154H37.2853C36.8173 44.9154 36.438 45.2947 36.438 45.7627Z" fill="#9CC216"/>
<path d="M15.2532 43.2206C15.6268 43.2211 15.9566 42.9768 16.0651 42.6193C16.1737 42.2618 16.0353 41.8754 15.7244 41.6682L13.1823 39.9734C13.0426 39.8806 12.8787 39.8311 12.7111 39.831H9.32156C8.85354 39.831 8.4742 40.2104 8.4742 40.6783C8.4742 41.1463 8.85364 41.5257 9.32156 41.5257H12.4569L14.7855 43.0781C14.924 43.1706 15.0868 43.2202 15.2532 43.2206Z" fill="#9CC216"/>
<path d="M6.7794 44.9154C6.31138 44.9154 5.93204 45.2947 5.93204 45.7627C5.93204 46.2307 6.31138 46.6101 6.7794 46.6101H13.5585C14.0265 46.6101 14.4059 46.2307 14.4059 45.7627C14.4059 45.2947 14.0265 44.9154 13.5585 44.9154H6.7794Z" fill="#9CC216"/>
</svg>
