<svg width="50" height="39" viewBox="0 0 50 39" fill="none" xmlns="http://www.w3.org/2000/svg">
<path d="M47.5 0H2.5C1.11934 0 0 1.11924 0 2.5V35.8333C0 37.214 1.11924 38.3333 2.5 38.3333H47.5C48.8807 38.3333 50 37.2141 50 35.8333V2.5C50 1.11934 48.8808 0 47.5 0ZM48.3333 35.8334C48.3333 36.2937 47.9603 36.6667 47.5 36.6667H2.5C2.03975 36.6667 1.6667 36.2937 1.6667 35.8334V2.5C1.6667 2.03975 2.03975 1.6667 2.5 1.6667H47.5C47.9603 1.6667 48.3333 2.03975 48.3333 2.5V35.8334Z" fill="#9CC216"/>
<path d="M45.9059 3.33643C45.6856 3.31719 45.4668 3.38623 45.2976 3.52842L26.0725 19.6783C25.4524 20.1995 24.5475 20.1995 23.9274 19.6783L4.70254 3.52832C4.47451 3.33691 4.16162 3.28164 3.88184 3.3834C3.60205 3.48516 3.39775 3.72852 3.346 4.02178C3.29424 4.31504 3.40283 4.61357 3.63086 4.80498L22.8559 20.9541C24.0949 21.9974 25.9051 21.9974 27.1442 20.9541L46.3691 4.80508C46.5385 4.66299 46.6443 4.45947 46.6636 4.23926C46.6828 4.01904 46.6138 3.8002 46.4716 3.63096C46.3296 3.46152 46.1261 3.35566 45.9059 3.33643Z" fill="#9CC216"/>
<path d="M16.0277 20.8396C15.7327 20.7737 15.4253 20.8728 15.2241 21.0983L3.55742 33.5983C3.34629 33.8146 3.26875 34.1282 3.35488 34.4179C3.44102 34.7076 3.67725 34.9279 3.97217 34.9938C4.26719 35.0596 4.57461 34.9605 4.77578 34.735L16.4425 22.235C16.6536 22.0188 16.7312 21.7051 16.645 21.4154C16.5589 21.1258 16.3228 20.9054 16.0277 20.8396Z" fill="#9CC216"/>
<path d="M34.7759 21.0983C34.5748 20.8728 34.2673 20.7737 33.9723 20.8396C33.6772 20.9054 33.4411 21.1258 33.355 21.4154C33.2688 21.7052 33.3464 22.0188 33.5575 22.235L45.2242 34.735C45.5406 35.059 46.0578 35.0711 46.389 34.7621C46.7201 34.4531 46.7439 33.9363 46.4426 33.5982L34.7759 21.0983Z" fill="#9CC216"/>
</svg>
