<svg width="47" height="50" viewBox="0 0 47 50" fill="none" xmlns="http://www.w3.org/2000/svg">
<path d="M28.5208 3.9114C28.0717 3.80934 27.625 4.09071 27.5229 4.53968C27.4209 4.98865 27.7022 5.43547 28.1512 5.53753C39.1614 8.03953 46.4082 18.5729 44.8088 29.75C43.2093 40.927 33.2994 49.0054 22.0292 48.3192C10.7593 47.633 1.90272 38.4119 1.67125 27.1234C1.43979 15.8348 9.911 6.2584 21.1435 5.11083L18.4246 7.73412C18.0949 8.05398 18.0861 8.5804 18.4051 8.91099C18.724 9.24159 19.2504 9.25185 19.5819 8.93375L23.8794 4.78707C23.9828 4.698 24.0623 4.58461 24.1105 4.45696C24.1252 4.40803 24.1353 4.35783 24.1407 4.30704C24.1543 4.26124 24.1638 4.21426 24.169 4.16679C24.169 4.15654 24.1635 4.14814 24.1631 4.13798C24.1629 4.11474 24.1744 4.09335 24.1722 4.06991C24.1596 4.00789 24.1399 3.94763 24.1132 3.8903C24.1054 3.86833 24.1012 3.84567 24.0917 3.82457C24.0533 3.73765 23.9998 3.65835 23.9336 3.59018L23.9146 3.57035C23.8806 3.52689 23.8423 3.48704 23.8003 3.45139L18.7632 0.137406C18.3789 -0.115646 17.8621 -0.00928787 17.6091 0.375124C17.356 0.759438 17.4624 1.27619 17.8468 1.52924L20.8018 3.47356C8.97263 4.77994 0.0152358 14.7681 0 26.6691C0.00292997 38.8807 9.42013 49.0251 21.5979 49.9343C33.7756 50.8437 44.595 42.2104 46.4114 30.1347C48.228 18.0589 40.4272 6.62484 28.5208 3.9114Z" fill="#9CC216"/>
<path d="M15.0825 12.2067C15.0549 12.2143 15.0279 12.2235 15.0014 12.2342C14.9732 12.2558 14.9464 12.2795 14.9213 12.3048C12.4646 13.7501 10.4167 15.7979 8.97136 18.2547C8.94597 18.2799 8.92233 18.3067 8.90055 18.335C8.8901 18.3614 8.88102 18.3883 8.8734 18.4157C5.93181 23.5249 5.93181 29.8136 8.8734 34.9227C8.88102 34.9501 8.89001 34.9771 8.90055 35.0034C8.93015 35.0512 8.96462 35.0957 9.0034 35.1364C10.4469 37.5701 12.4827 39.5988 14.9213 41.0337C14.9464 41.059 14.9731 41.0826 15.0014 41.1043C15.0376 41.1225 15.075 41.1379 15.1134 41.1505C20.2069 44.0666 26.464 44.0666 31.5577 41.1505C31.5961 41.1379 31.6336 41.1225 31.6696 41.1043C31.6978 41.0826 31.7246 41.059 31.7497 41.0337C34.1883 39.5988 36.2242 37.5701 37.6676 35.1364C37.7063 35.0957 37.7408 35.0512 37.7705 35.0034C37.7809 34.9771 37.79 34.9502 37.7976 34.9227C40.7392 29.8136 40.7392 23.5249 37.7976 18.4157C37.7901 18.3884 37.781 18.3614 37.7705 18.335C37.7489 18.3069 37.7254 18.2802 37.7001 18.2553C36.2547 15.7982 34.2068 13.7502 31.7497 12.3048C31.7113 12.2518 31.6534 12.2166 31.5887 12.2069C26.4799 9.26552 20.1916 9.26542 15.0825 12.2067ZM24.169 12.5011V11.7099C26.2329 11.8208 28.251 12.3607 30.0947 13.295L29.6977 13.9823C29.4678 14.3809 29.6045 14.8905 30.003 15.1206C30.4016 15.3507 30.9111 15.2141 31.1414 14.8158L31.54 14.1257C33.2679 15.2599 34.7447 16.7366 35.879 18.4645L35.1889 18.8631C34.7904 19.0934 34.654 19.6029 34.8841 20.0015C35.1142 20.4001 35.6237 20.5368 36.0224 20.3069L36.7096 19.9099C37.6439 21.7535 38.1838 23.7717 38.2948 25.8356H37.5036C37.0433 25.8356 36.6702 26.2087 36.6702 26.6689C36.6702 27.1292 37.0433 27.5023 37.5036 27.5023H38.2948C38.1838 29.5662 37.6439 31.5843 36.7096 33.428L36.0224 33.031C35.7644 32.8819 35.4465 32.8818 35.1886 33.0308C34.9307 33.1797 34.7717 33.455 34.7718 33.7529C34.7719 34.0508 34.9309 34.326 35.189 34.4749L35.8791 34.8734C34.7448 36.6013 33.268 38.0781 31.5401 39.2124L31.1415 38.5223C30.9927 38.2642 30.7176 38.1052 30.4196 38.1051C30.1217 38.105 29.8464 38.2639 29.6975 38.5219C29.5485 38.7799 29.5486 39.0978 29.6977 39.3557L30.0947 40.043C28.251 40.9772 26.2329 41.5171 24.169 41.6281V40.8369C24.169 40.3766 23.7959 40.0035 23.3356 40.0035C22.8753 40.0035 22.5022 40.3766 22.5022 40.8369V41.6281C20.4384 41.5171 18.4202 40.9772 16.5766 40.043L16.9736 39.3557C17.2034 38.957 17.0668 38.4475 16.6682 38.2174C16.2696 37.9873 15.7601 38.1238 15.5298 38.5222L15.1312 39.2123C13.4033 38.078 11.9265 36.6012 10.7922 34.8733L11.4823 34.4748C11.7404 34.326 11.8995 34.0508 11.8996 33.7528C11.8997 33.4548 11.7408 33.1796 11.4827 33.0307C11.2247 32.8817 10.9069 32.8818 10.649 33.0309L9.96169 33.4279C9.02742 31.5842 8.48753 29.5661 8.37658 27.5022H9.16777C9.62807 27.5022 10.0011 27.129 10.0011 26.6688C10.0011 26.2085 9.62797 25.8355 9.16777 25.8355H8.37658C8.48753 23.7716 9.02742 21.7534 9.96169 19.9098L10.649 20.3068C10.9069 20.4558 11.2248 20.4559 11.4827 20.307C11.7407 20.1581 11.8997 19.8827 11.8996 19.5849C11.8995 19.287 11.7405 19.0118 11.4823 18.8629L10.7922 18.4643C11.9265 16.7364 13.4033 15.2596 15.1312 14.1254L15.5298 14.8155C15.6785 15.0736 15.9538 15.2326 16.2517 15.2327C16.5496 15.2328 16.8249 15.0739 16.9739 14.8159C17.1228 14.5578 17.1227 14.24 16.9737 13.9821L16.5767 13.2948C18.4203 12.3605 20.4385 11.8206 22.5023 11.7097V12.5009C22.5023 12.9612 22.8754 13.3343 23.3357 13.3343C23.796 13.3343 24.169 12.9614 24.169 12.5011Z" fill="#9CC216"/>
<path d="M22.5021 17.5016V23.4538C20.9296 23.857 19.8778 25.3365 20.0135 26.9542C20.1492 28.5719 21.4327 29.8555 23.0504 29.9911C24.6682 30.1268 26.1476 29.075 26.5509 27.5025H30.0029C30.4632 27.5025 30.8362 27.1293 30.8362 26.6691C30.8362 26.2088 30.4632 25.8357 30.0029 25.8357H26.5509C26.247 24.6689 25.3358 23.7577 24.169 23.4539V17.5017C24.169 17.0414 23.7959 16.6683 23.3356 16.6683C22.8753 16.6683 22.5021 17.0413 22.5021 17.5016ZM25.0024 26.6691C25.0012 27.5892 24.2556 28.3348 23.3355 28.336C22.4149 28.336 21.6687 27.5897 21.6687 26.6691C21.6687 25.7485 22.4149 25.0023 23.3355 25.0023C24.2561 25.0023 25.0024 25.7485 25.0024 26.6691Z" fill="#9CC216"/>
</svg>
