<svg width="74" height="74" viewBox="0 0 74 74" fill="none" xmlns="http://www.w3.org/2000/svg">
<g clip-path="url(#clip0)">
<path d="M65.8792 73.951H8.11972C6.60666 73.951 5.3804 72.7248 5.3804 71.2117V27.0444H68.619V71.2117C68.619 72.7248 67.3922 73.951 65.8792 73.951Z" fill="#FFCD00"/>
<path d="M5.3804 27.0444H68.619V36.2352H5.3804V27.0444Z" fill="#FF9B10"/>
<path d="M74 17.463V28.8493C74 30.0654 73.0131 31.0506 71.797 31.0506H2.20128C0.985184 31.0506 0 30.0654 0 28.8493V17.463C0 16.2469 0.985184 15.2617 2.20128 15.2617H71.797C73.0131 15.2617 74 16.2469 74 17.463Z" fill="#FFCD00"/>
<path d="M34.4843 20.4966C34.0038 21.0561 33.5324 21.6235 33.0723 22.1971C31.3576 24.3307 29.7881 26.5664 28.3693 28.8868C27.9329 29.6004 27.5117 30.3214 27.103 31.0508H12.0949C12.9717 29.0612 13.9332 27.1084 14.9748 25.1996C16.8639 21.7365 19.0194 18.4134 21.4279 15.2619C22.0032 14.5093 22.592 13.7658 23.1956 13.0335C23.5569 12.592 23.9244 12.1567 24.2971 11.7231C25.6667 12.9031 27.0352 14.0819 28.4055 15.2619C28.6178 15.4437 28.83 15.6277 29.0417 15.8101C30.6587 17.2023 32.2756 18.594 33.892 19.988C34.0902 20.1562 34.2867 20.3273 34.4843 20.4966Z" fill="#EFB025"/>
<path d="M56.877 31.0508H41.8678C41.4607 30.3214 41.0378 29.6004 40.6014 28.8868C39.1826 26.5664 37.6114 24.3307 35.8985 22.1971C35.4367 21.6235 34.9653 21.0561 34.4843 20.4966C34.6824 20.3273 34.8789 20.1573 35.0771 19.988C36.6951 18.594 38.3121 17.2007 39.9285 15.8101C40.1407 15.6277 40.353 15.4437 40.5653 15.2619C41.935 14.0819 43.3052 12.9031 44.6737 11.7231C45.0463 12.1556 45.4139 12.592 45.7752 13.0324C46.3799 13.7658 46.9693 14.5093 47.5429 15.2619C49.9514 18.4134 52.1069 21.7365 53.9971 25.1996C55.0387 27.1084 56.0002 29.0612 56.877 31.0508Z" fill="#EFB025"/>
<path d="M36.9989 20.4972C36.5179 21.0561 36.0464 21.6235 35.5863 22.1971C33.8723 24.3307 32.3022 26.5664 30.8834 28.8874C26.3792 36.25 23.3875 44.4747 22.1257 53.0834C20.2293 50.5682 18.4791 47.8469 16.9045 44.9371C14.1347 46.7437 11.4276 48.8101 8.82092 51.135C10.1595 42.0036 13.1089 33.2267 17.4894 25.1996C19.829 20.9099 22.5785 16.8342 25.7096 13.0335C26.071 12.592 26.4385 12.1573 26.8111 11.7231C28.3931 13.0855 29.9739 14.4478 31.5564 15.8101C33.1727 17.2023 34.7897 18.594 36.4066 19.988C36.6042 20.1562 36.8007 20.3273 36.9989 20.4972Z" fill="#B3D32F"/>
<path d="M65.1779 51.135C62.5713 48.8101 59.8642 46.7437 57.0944 44.9371C55.5198 47.8469 53.7696 50.5682 51.8732 53.0834C50.6113 44.4747 47.6202 36.25 43.1155 28.8874C41.6967 26.5664 40.1255 24.3307 38.4126 22.1971C37.9507 21.6235 37.4793 21.0561 36.9989 20.4972C37.1965 20.3273 37.3929 20.1573 37.5911 19.988C39.2092 18.594 40.8261 17.2007 42.4431 15.8101C44.025 14.4461 45.6075 13.0855 47.1878 11.7231C47.5604 12.1556 47.9279 12.592 48.2892 13.0324C51.4209 16.8331 54.1704 20.9088 56.5112 25.1996C60.8906 33.2267 63.8393 42.0036 65.1779 51.135Z" fill="#B3D32F"/>
<path d="M31.1081 20.4971H42.8913V31.0501H31.1081V20.4971Z" fill="#B3D32F"/>
<path d="M56.5112 25.1999L43.1155 28.8877C41.6967 26.5667 40.1255 24.331 38.4126 22.1975L37.5911 19.9883L36.9989 18.3951L42.4431 15.8104L48.2892 13.0327C51.4209 16.8334 54.1704 20.9091 56.5112 25.1999Z" fill="#9CC216"/>
<path d="M36.9989 18.3949L36.4066 19.9881L35.5863 22.1973C33.8723 24.3308 32.3022 26.5666 30.8834 28.8875L17.4894 25.1997C19.829 20.9101 22.5785 16.8344 25.7096 13.0337L31.5564 15.8103L36.9989 18.3949Z" fill="#9CC216"/>
<path d="M58.3782 0.511955L36.9994 10.6647L41.1062 21.7095L63.9252 15.4286C66.9095 14.6071 68.549 11.4043 67.4701 8.50295L65.5867 3.43871C64.5084 0.537361 61.1746 -0.815926 58.3782 0.511955Z" fill="#B3D32F"/>
<path d="M15.6207 0.511955L36.9994 10.6647L32.8927 21.7095L10.0743 15.4286C7.08994 14.6071 5.45041 11.4043 6.52932 8.50295L8.41217 3.43871C9.49108 0.537361 12.8243 -0.815926 15.6207 0.511955Z" fill="#B3D32F"/>
<path d="M42.1043 15.1036C41.7159 15.1036 41.3348 14.9116 41.1107 14.5599C40.7601 14.0117 40.9198 13.2834 41.468 12.9328C41.6301 12.8295 45.4805 10.3792 49.9011 8.59121C56.274 6.01336 60.5298 6.15168 62.5487 9.00222C62.9253 9.53349 62.7994 10.2691 62.2681 10.6451C61.7369 11.0211 61.0018 10.8958 60.6258 10.3645C57.8887 6.50059 46.5086 12.5088 42.7378 14.9184C42.5413 15.0437 42.3217 15.1036 42.1043 15.1036Z" fill="#9CC216"/>
<path d="M31.7782 15.1036C31.5609 15.1036 31.3413 15.0437 31.1448 14.9184C27.374 12.5088 15.9938 6.50059 13.2568 10.3645C12.8802 10.8958 12.1451 11.0211 11.6139 10.6451C11.0832 10.2686 10.9573 9.53349 11.3338 9.00222C13.3528 6.15168 17.608 6.01336 23.9815 8.59121C28.4021 10.3787 32.2525 12.8295 32.4145 12.9328C32.9627 13.2834 33.1225 14.0117 32.7725 14.5599C32.5472 14.9116 32.1667 15.1036 31.7782 15.1036Z" fill="#9CC216"/>
<path d="M40.3519 6.86865H33.647C31.8121 6.86865 30.3245 8.35631 30.3245 10.1917V19.9324C30.3245 21.7678 31.8121 23.2554 33.647 23.2554H40.3519C42.1868 23.2554 43.6744 21.7678 43.6744 19.9324V10.1917C43.6744 8.35631 42.1868 6.86865 40.3519 6.86865Z" fill="#9CC216"/>
<path d="M31.1081 31.0508H42.8913V73.9512H31.1081V31.0508Z" fill="#B3D32F"/>
<path d="M31.1081 31.0508H42.8913V36.2353H31.1081V31.0508Z" fill="#9CC216"/>
</g>
<defs>
<clipPath id="clip0">
<rect width="74" height="74" fill="white"/>
</clipPath>
</defs>
</svg>
