<svg width="247" height="16" viewBox="0 0 247 16" fill="none" xmlns="http://www.w3.org/2000/svg">
<path d="M4.264 12H1.287V2.9H4.264C5.73733 2.9 6.92467 3.32033 7.826 4.161C8.736 5.01033 9.191 6.10667 9.191 7.45C9.191 8.802 8.736 9.89833 7.826 10.739C6.92467 11.5797 5.73733 12 4.264 12ZM2.249 3.771V11.129H4.147C5.395 11.129 6.38733 10.7953 7.124 10.128C7.852 9.46933 8.216 8.57667 8.216 7.45C8.216 6.32333 7.852 5.43067 7.124 4.772C6.38733 4.10467 5.395 3.771 4.147 3.771H2.249ZM12.3022 12H11.3662V5.721H12.3022V12ZM11.3662 4.031C11.2448 3.901 11.1842 3.745 11.1842 3.563C11.1842 3.381 11.2448 3.225 11.3662 3.095C11.4962 2.965 11.6522 2.9 11.8342 2.9C12.0162 2.9 12.1722 2.965 12.3022 3.095C12.4322 3.225 12.4972 3.381 12.4972 3.563C12.4972 3.745 12.4322 3.901 12.3022 4.031C12.1722 4.15233 12.0162 4.213 11.8342 4.213C11.6522 4.213 11.4962 4.15233 11.3662 4.031ZM19.8113 11.597V10.934C19.248 11.6793 18.4376 12.052 17.3803 12.052C16.453 12.052 15.6946 11.74 15.1053 11.116C14.516 10.4747 14.2213 9.70767 14.2213 8.815C14.2213 7.92233 14.516 7.15533 15.1053 6.514C15.686 5.88133 16.4443 5.565 17.3803 5.565C18.455 5.565 19.2653 5.93767 19.8113 6.683V5.721H20.7473V11.597C20.7473 12.585 20.4223 13.339 19.7723 13.859C19.1396 14.3877 18.3293 14.652 17.3413 14.652C16.388 14.652 15.5776 14.4613 14.9103 14.08V13.17C15.621 13.5947 16.401 13.807 17.2503 13.807C18.0303 13.807 18.65 13.6207 19.1093 13.248C19.5773 12.8753 19.8113 12.325 19.8113 11.597ZM19.8113 9.829V7.788C19.638 7.38067 19.3476 7.05133 18.9403 6.8C18.533 6.54 18.0866 6.41 17.6013 6.41C16.908 6.41 16.3316 6.63967 15.8723 7.099C15.413 7.55833 15.1833 8.13033 15.1833 8.815C15.1833 9.49967 15.413 10.0717 15.8723 10.531C16.323 10.9817 16.8993 11.207 17.6013 11.207C18.0866 11.207 18.533 11.0813 18.9403 10.83C19.3476 10.57 19.638 10.2363 19.8113 9.829ZM24.0199 12H23.0839V5.721H24.0199V12ZM23.0839 4.031C22.9626 3.901 22.9019 3.745 22.9019 3.563C22.9019 3.381 22.9626 3.225 23.0839 3.095C23.2139 2.965 23.3699 2.9 23.5519 2.9C23.7339 2.9 23.8899 2.965 24.0199 3.095C24.1499 3.225 24.2149 3.381 24.2149 3.563C24.2149 3.745 24.1499 3.901 24.0199 4.031C23.8899 4.15233 23.7339 4.213 23.5519 4.213C23.3699 4.213 23.2139 4.15233 23.0839 4.031ZM28.8901 12.156C28.3094 12.156 27.8674 11.987 27.5641 11.649C27.2694 11.3023 27.1221 10.8257 27.1221 10.219V6.54H25.6401V5.721H27.1221V3.784H28.0581V5.721H30.2551V6.54H28.0581V9.933C28.0581 10.4357 28.1404 10.7823 28.3051 10.973C28.4784 11.1723 28.7601 11.272 29.1501 11.272C29.5314 11.272 29.8737 11.1853 30.1771 11.012V11.87C29.9084 12.0607 29.4794 12.156 28.8901 12.156ZM34.099 11.311C34.5323 11.311 34.944 11.2113 35.334 11.012C35.724 10.8127 36.0403 10.5613 36.283 10.258V9.387C35.6417 8.971 34.9613 8.763 34.242 8.763C33.67 8.763 33.215 8.87567 32.877 9.101C32.5477 9.32633 32.383 9.634 32.383 10.024C32.383 10.4313 32.5433 10.7477 32.864 10.973C33.1847 11.1983 33.5963 11.311 34.099 11.311ZM33.839 12.156C33.1717 12.156 32.604 11.974 32.136 11.61C31.6767 11.2287 31.447 10.7173 31.447 10.076C31.447 9.44333 31.6897 8.93633 32.175 8.555C32.6603 8.18233 33.2757 7.996 34.021 7.996C34.8357 7.996 35.5897 8.19967 36.283 8.607V7.983C36.283 6.93433 35.594 6.41 34.216 6.41C33.4793 6.41 32.7947 6.62233 32.162 7.047V6.137C32.7773 5.75567 33.527 5.565 34.411 5.565C35.269 5.565 35.9493 5.76867 36.452 6.176C36.9633 6.57467 37.219 7.14667 37.219 7.892V10.479C37.219 10.7217 37.271 10.9123 37.375 11.051C37.4877 11.1897 37.635 11.259 37.817 11.259C37.9557 11.259 38.077 11.233 38.181 11.181V11.909C38.0423 12.0043 37.8343 12.052 37.557 12.052C37.245 12.052 36.9807 11.9697 36.764 11.805C36.556 11.6317 36.426 11.3803 36.374 11.051C35.7413 11.7877 34.8963 12.156 33.839 12.156ZM41.1418 12.156C40.7084 12.156 40.3574 12.0303 40.0888 11.779C39.8288 11.5277 39.6988 11.1377 39.6988 10.609V2.9H40.6348V10.388C40.6348 11.0033 40.9078 11.311 41.4538 11.311C41.6704 11.311 41.8741 11.2547 42.0648 11.142V11.974C41.8394 12.0953 41.5318 12.156 41.1418 12.156ZM47.3426 8.906H43.6896V8.035H47.3426V8.906ZM51.8724 11.311C52.3058 11.311 52.7174 11.2113 53.1074 11.012C53.4974 10.8127 53.8138 10.5613 54.0564 10.258V9.387C53.4151 8.971 52.7348 8.763 52.0154 8.763C51.4434 8.763 50.9884 8.87567 50.6504 9.101C50.3211 9.32633 50.1564 9.634 50.1564 10.024C50.1564 10.4313 50.3168 10.7477 50.6374 10.973C50.9581 11.1983 51.3698 11.311 51.8724 11.311ZM51.6124 12.156C50.9451 12.156 50.3774 11.974 49.9094 11.61C49.4501 11.2287 49.2204 10.7173 49.2204 10.076C49.2204 9.44333 49.4631 8.93633 49.9484 8.555C50.4338 8.18233 51.0491 7.996 51.7944 7.996C52.6091 7.996 53.3631 8.19967 54.0564 8.607V7.983C54.0564 6.93433 53.3674 6.41 51.9894 6.41C51.2528 6.41 50.5681 6.62233 49.9354 7.047V6.137C50.5508 5.75567 51.3004 5.565 52.1844 5.565C53.0424 5.565 53.7228 5.76867 54.2254 6.176C54.7368 6.57467 54.9924 7.14667 54.9924 7.892V10.479C54.9924 10.7217 55.0444 10.9123 55.1484 11.051C55.2611 11.1897 55.4084 11.259 55.5904 11.259C55.7291 11.259 55.8504 11.233 55.9544 11.181V11.909C55.8158 12.0043 55.6078 12.052 55.3304 12.052C55.0184 12.052 54.7541 11.9697 54.5374 11.805C54.3294 11.6317 54.1994 11.3803 54.1474 11.051C53.5148 11.7877 52.6698 12.156 51.6124 12.156ZM58.4082 12H57.4722V5.721H62.1912V6.54H58.4082V12ZM66.5182 12.156C65.5388 12.156 64.7155 11.8483 64.0482 11.233C63.3895 10.6263 63.0602 9.83767 63.0602 8.867C63.0602 7.931 63.3548 7.14667 63.9442 6.514C64.5422 5.88133 65.3092 5.565 66.2452 5.565C66.7478 5.565 67.1942 5.669 67.5842 5.877C67.9742 6.07633 68.2818 6.34067 68.5072 6.67C68.7325 6.99933 68.9015 7.35033 69.0142 7.723C69.1268 8.087 69.1832 8.45533 69.1832 8.828V9.088H64.0222C64.0742 9.764 64.3428 10.3057 64.8282 10.713C65.3222 11.1117 65.9462 11.311 66.7002 11.311C67.4282 11.311 68.0998 11.116 68.7152 10.726V11.558C68.2038 11.9567 67.4715 12.156 66.5182 12.156ZM64.0352 8.321H68.2342C68.2082 7.83567 68.0262 7.398 67.6882 7.008C67.3675 6.60933 66.8735 6.41 66.2062 6.41C65.5822 6.41 65.0708 6.60067 64.6722 6.982C64.2822 7.372 64.0698 7.81833 64.0352 8.321ZM71.8779 12H70.9419V5.721H71.8779V8.36H75.7389V5.721H76.6749V12H75.7389V9.205H71.8779V12ZM81.3332 12H80.3972V6.54H78.1222V5.721H83.6082V6.54H81.3332V12ZM87.7674 12.156C86.8054 12.156 86.008 11.844 85.3754 11.22C84.7427 10.5873 84.4264 9.79867 84.4264 8.854C84.4264 7.918 84.747 7.138 85.3884 6.514C86.021 5.88133 86.8184 5.565 87.7804 5.565C88.5084 5.565 89.141 5.71667 89.6784 6.02V6.891C89.115 6.57033 88.5257 6.41 87.9104 6.41C87.1824 6.41 86.58 6.644 86.1034 7.112C85.6267 7.56267 85.3884 8.14767 85.3884 8.867C85.3884 9.569 85.6267 10.154 86.1034 10.622C86.5887 11.0813 87.191 11.311 87.9104 11.311C88.6037 11.311 89.232 11.129 89.7954 10.765V11.623C89.206 11.9783 88.53 12.156 87.7674 12.156ZM94.0539 12H93.1179V6.54H90.8429V5.721H96.3289V6.54H94.0539V12ZM101.29 12H97.7671V5.721H101.069C101.667 5.721 102.131 5.86833 102.46 6.163C102.798 6.449 102.967 6.83467 102.967 7.32C102.967 7.996 102.707 8.45533 102.187 8.698C102.984 8.932 103.383 9.46933 103.383 10.31C103.383 10.8387 103.201 11.2547 102.837 11.558C102.473 11.8527 101.957 12 101.29 12ZM98.7031 9.166V11.181H101.095C101.52 11.181 101.849 11.0943 102.083 10.921C102.317 10.7477 102.434 10.5007 102.434 10.18C102.434 9.85933 102.317 9.61233 102.083 9.439C101.849 9.257 101.52 9.166 101.095 9.166H98.7031ZM98.7031 6.54V8.386H100.809C101.199 8.386 101.502 8.308 101.719 8.152C101.936 7.98733 102.044 7.75767 102.044 7.463C102.044 6.84767 101.632 6.54 100.809 6.54H98.7031ZM105.764 6.54C106.397 5.89 107.211 5.565 108.208 5.565C109.205 5.565 110.019 5.89 110.652 6.54C111.285 7.17267 111.601 7.94833 111.601 8.867C111.601 9.78567 111.285 10.5613 110.652 11.194C110.011 11.8353 109.196 12.156 108.208 12.156C107.22 12.156 106.405 11.8353 105.764 11.194C105.131 10.5613 104.815 9.78567 104.815 8.867C104.815 7.94833 105.131 7.17267 105.764 6.54ZM110.639 8.867C110.639 8.17367 110.409 7.58867 109.95 7.112C109.491 6.644 108.91 6.41 108.208 6.41C107.506 6.41 106.925 6.644 106.466 7.112C106.007 7.58867 105.777 8.17367 105.777 8.867C105.777 9.55167 106.007 10.1323 106.466 10.609C106.925 11.077 107.506 11.311 108.208 11.311C108.91 11.311 109.491 11.077 109.95 10.609C110.409 10.1323 110.639 9.55167 110.639 8.867Z" fill="#6D6D6D"/>
<path opacity="0.75" d="M121.555 0.382812H116.292V12.7994H121.555V0.382812Z" fill="#6D6D6D"/>
<path opacity="0.75" d="M189.601 0.382812H184.337V12.7994H189.601V0.382812Z" fill="#6D6D6D"/>
<path opacity="0.75" d="M121.555 0.382812H116.292V9.31621H121.555C124.012 9.31621 126.003 7.31644 126.003 4.84951C126.003 2.38258 124.012 0.382812 121.555 0.382812Z" fill="#6D6D6D"/>
<path opacity="0.75" d="M138.978 12.7994H130.627V0.382812L138.978 12.7994Z" fill="#6D6D6D"/>
<path opacity="0.75" d="M134.531 0.382812H130.627V9.31621H134.531C135.186 9.31621 135.807 9.17279 136.367 8.91741C137.907 8.21503 138.978 6.65849 138.978 4.84951C138.978 2.38258 136.987 0.382812 134.531 0.382812Z" fill="#6D6D6D"/>
<path opacity="0.75" d="M172.594 0.382812L166.118 12.7994H172.594H179.069L172.594 0.382812Z" fill="#6D6D6D"/>
<path opacity="0.75" d="M165.934 0.382812L159.458 12.7994H165.934H172.41L165.934 0.382812Z" fill="#6D6D6D"/>
<path opacity="0.75" d="M150.077 12.7994C153.491 12.7994 156.258 10.0199 156.258 6.59111C156.258 3.16236 153.491 0.382812 150.077 0.382812C146.663 0.382812 143.895 3.16236 143.895 6.59111C143.895 10.0199 146.663 12.7994 150.077 12.7994Z" fill="#6D6D6D"/>
<path opacity="0.75" d="M240.135 0L233.66 12.4166H240.135H246.611L240.135 0Z" fill="#6D6D6D"/>
<path opacity="0.75" d="M233.476 0L227 12.4166H233.476H239.951L233.476 0Z" fill="#6D6D6D"/>
<path opacity="0.75" d="M217.054 12.7994C220.468 12.7994 223.236 10.0199 223.236 6.59112C223.236 3.16236 220.468 0.382812 217.054 0.382812C213.64 0.382812 210.872 3.16236 210.872 6.59112C210.872 10.0199 213.64 12.7994 217.054 12.7994Z" fill="#6D6D6D"/>
<path opacity="0.75" d="M205.347 2.43668C204.216 1.17584 202.577 0.382812 200.754 0.382812C200.306 0.382812 199.869 0.431988 199.447 0.523125C196.661 1.12551 194.573 3.61293 194.573 6.59112C194.573 9.5693 196.661 12.0567 199.447 12.6591C199.869 12.7502 200.306 12.7994 200.754 12.7994C202.577 12.7994 204.216 12.0064 205.347 10.7456L202.95 6.59112L205.347 2.43668Z" fill="#6D6D6D"/>
<path opacity="0.75" d="M205.347 2.43667C204.216 1.17584 202.577 0.382812 200.754 0.382812C200.306 0.382812 199.869 0.431988 199.448 0.523125L202.95 6.59111L205.347 2.43667Z" fill="#6D6D6D"/>
<path opacity="0.75" d="M199.448 12.6598C199.869 12.7509 200.306 12.8001 200.754 12.8001C202.577 12.8001 204.216 12.0071 205.347 10.7462L202.95 6.5918L199.448 12.6598Z" fill="#6D6D6D"/>
<path opacity="0.75" d="M145.706 10.9811C146.824 12.1046 148.37 12.7995 150.077 12.7995C153.491 12.7995 156.258 10.0199 156.258 6.59116C156.258 4.87677 155.567 3.32465 154.448 2.20117L145.706 10.9811Z" fill="#6D6D6D"/>
<path opacity="0.75" d="M212.683 10.9812C213.802 12.1046 215.347 12.7995 217.054 12.7995C220.468 12.7995 223.236 10.02 223.236 6.59116C223.236 4.87677 222.544 3.32465 221.425 2.20117L212.683 10.9812Z" fill="#6D6D6D"/>
</svg>
