<svg width="22" height="36" viewBox="0 0 22 36" fill="none" xmlns="http://www.w3.org/2000/svg">
<path d="M0.574213 16.5953L16.5947 0.575117C16.9652 0.204291 17.4598 0 17.9872 0C18.5147 0 19.0093 0.204291 19.3798 0.575117L20.5596 1.75462C21.3273 2.5232 21.3273 3.77236 20.5596 4.53977L7.10684 17.9925L20.5745 31.4602C20.9451 31.8311 21.1497 32.3254 21.1497 32.8525C21.1497 33.3802 20.9451 33.8746 20.5745 34.2457L19.3947 35.4249C19.0239 35.7957 18.5296 36 18.0022 36C17.4748 36 16.9801 35.7957 16.6096 35.4249L0.574213 19.3901C0.202801 19.0181 -0.00119591 18.5214 -2.47955e-05 17.9934C-0.00119591 17.4634 0.202801 16.967 0.574213 16.5953Z" fill="#9CC216"/>
</svg>
