<svg width="26" height="15" viewBox="0 0 26 15" fill="none" xmlns="http://www.w3.org/2000/svg">
<path d="M14.0503 14.601L25.1754 3.47569C25.433 3.21837 25.5748 2.87488 25.5748 2.50862C25.5748 2.14236 25.433 1.79887 25.1754 1.54156L24.3563 0.722253C23.8226 0.189127 22.9551 0.189127 22.4222 0.722253L13.08 10.0645L3.72745 0.711886C3.46993 0.454571 3.12664 0.312499 2.76058 0.312499C2.39412 0.312499 2.05083 0.454571 1.79311 0.711886L0.974216 1.53119C0.716698 1.78871 0.574829 2.132 0.574829 2.49825C0.574829 2.86451 0.716698 3.208 0.974216 3.46532L12.1095 14.601C12.3678 14.8589 12.7127 15.0006 13.0794 14.9998C13.4475 15.0006 13.7922 14.8589 14.0503 14.601Z" fill="#9CC216"/>
</svg>
