<svg width="22" height="36" viewBox="0 0 22 36" fill="none" xmlns="http://www.w3.org/2000/svg">
<path d="M1.42455 16.5953L17.445 0.575117C17.8155 0.204291 18.3102 0 18.8376 0C19.365 0 19.8596 0.204291 20.2302 0.575117L21.41 1.75462C22.1777 2.5232 22.1777 3.77236 21.41 4.53977L7.95719 17.9925L21.4249 31.4602C21.7954 31.8311 22 32.3254 22 32.8525C22 33.3802 21.7954 33.8746 21.4249 34.2457L20.2451 35.4249C19.8743 35.7957 19.3799 36 18.8525 36C18.3251 36 17.8305 35.7957 17.4599 35.4249L1.42455 19.3901C1.05314 19.0181 0.849146 18.5214 0.850317 17.9934C0.849146 17.4634 1.05314 16.967 1.42455 16.5953Z" fill="white"/>
</svg>
