<svg width="50" height="50" viewBox="0 0 50 50" fill="none" xmlns="http://www.w3.org/2000/svg">
<path d="M43.2854 2.33425C43.69 2.33425 44.0179 2.00632 44.0179 1.60183V0.853882C44.0179 0.44939 43.69 0.12146 43.2854 0.12146C42.8808 0.12146 42.553 0.44939 42.553 0.853882V1.60183C42.553 2.00632 42.8809 2.33425 43.2854 2.33425Z" fill="#9CC216"/>
<path d="M42.553 11.9976V12.7455C42.553 13.15 42.8808 13.4779 43.2854 13.4779C43.69 13.4779 44.0179 13.15 44.0179 12.7455V11.9976C44.0179 11.5931 43.69 11.2651 43.2854 11.2651C42.8808 11.2651 42.553 11.5931 42.553 11.9976Z" fill="#9CC216"/>
<path d="M47.4787 3.64215L48.0076 3.11324C48.2937 2.82721 48.2937 2.36344 48.0077 2.0774C47.7216 1.79147 47.2579 1.79137 46.9719 2.0774L46.443 2.60631C46.1569 2.89235 46.1569 3.35612 46.4429 3.64215C46.7289 3.92809 47.1925 3.92828 47.4787 3.64215Z" fill="#9CC216"/>
<path d="M39.0921 9.9572L38.5632 10.4861C38.2772 10.7721 38.2772 11.2359 38.5632 11.5218C38.8493 11.8079 39.313 11.8079 39.599 11.5218L40.1279 10.9929C40.414 10.7069 40.414 10.2431 40.1279 9.9572C39.8418 9.67117 39.3781 9.67117 39.0921 9.9572Z" fill="#9CC216"/>
<path d="M47.7509 6.79968C47.7509 7.20417 48.0787 7.5321 48.4833 7.5321H49.2313C49.6358 7.5321 49.9637 7.20417 49.9637 6.79968C49.9637 6.39519 49.6358 6.06726 49.2313 6.06726H48.4833C48.0787 6.06726 47.7509 6.39519 47.7509 6.79968Z" fill="#9CC216"/>
<path d="M37.3396 7.5321H38.0876C38.4922 7.5321 38.82 7.20417 38.82 6.79968C38.82 6.39519 38.4922 6.06726 38.0876 6.06726H37.3396C36.9351 6.06726 36.6072 6.39519 36.6072 6.79968C36.6072 7.20417 36.9352 7.5321 37.3396 7.5321Z" fill="#9CC216"/>
<path d="M46.4428 9.9572C46.1568 10.2432 46.1568 10.707 46.4428 10.9929L46.9718 11.5218C47.2579 11.8079 47.7216 11.8079 48.0076 11.5218C48.2936 11.2358 48.2936 10.772 48.0076 10.4861L47.4787 9.9572C47.1927 9.67117 46.729 9.67117 46.4428 9.9572Z" fill="#9CC216"/>
<path d="M39.0922 3.64215C39.3781 3.92819 39.8419 3.92809 40.1279 3.64215C40.414 3.35612 40.414 2.89235 40.1278 2.60631L39.5989 2.0774C39.313 1.79137 38.8492 1.79147 38.5632 2.0774C38.2771 2.36344 38.2771 2.82721 38.5633 3.11325L39.0922 3.64215Z" fill="#9CC216"/>
<path d="M47.7545 45.2521V41.2508C47.7545 40.8463 47.4267 40.5184 47.0221 40.5184C46.6175 40.5184 46.2896 40.8463 46.2896 41.2508V45.2503H44.0918V44.4126C44.0918 43.2641 43.1574 42.3296 42.0089 42.3296H36.5296V39.9033C37.5891 40.1429 38.671 40.0852 39.6221 39.6035C41.0187 38.8962 41.9358 37.4011 42.3481 35.1595C42.3481 35.1594 42.3482 35.1594 42.3482 35.1593C42.4682 34.5057 41.8138 33.9735 41.1979 34.2333C40.9813 34.3246 40.322 34.6022 38.5859 34.5018C37.7926 34.4559 37.09 34.6489 36.5296 35.0619V34.5311C36.5708 34.1604 36.7003 32.4021 35.6161 31.2933C34.924 30.5854 33.9304 30.3047 32.6628 30.4589C30.7992 30.6855 30.1499 30.5594 29.9953 30.5153C29.6998 30.431 29.3815 30.5154 29.1662 30.7362C28.9502 30.9576 28.8733 31.2784 28.9654 31.5735C28.9655 31.5737 28.9655 31.5738 28.9656 31.574C29.6538 33.7726 30.747 35.1515 32.2147 35.6725C33.1503 36.0046 34.1378 35.9435 35.0648 35.6342V42.3296H29.2804C28.1318 42.3296 27.1975 43.264 27.1975 44.4126V45.2503H24.6006V26.7566H46.2898V37.8267C46.2898 38.2312 46.6177 38.5591 47.0223 38.5591C47.4269 38.5591 47.7547 38.2312 47.7547 37.8267V26.0242C47.7547 25.814 47.6614 25.5986 47.4803 25.4531C47.479 25.4522 47.478 25.4509 47.4767 25.4498L37.6626 17.6859C37.1269 17.2621 36.4557 17.0288 35.7726 17.0288C31.1281 17.029 13.5054 17.0284 13.4134 17.0296C13.2443 17.0317 13.086 17.0939 12.9687 17.1868L2.52354 25.4498C2.52227 25.4508 2.52129 25.4521 2.51992 25.4531C2.34863 25.5907 2.24551 25.803 2.24551 26.0242V45.2521C1.00117 45.2885 0 46.3113 0 47.5644C0 48.8403 1.03809 49.8785 2.31406 49.8785H47.6858C48.9618 49.8785 49.9999 48.8404 49.9999 47.5644C50 46.3113 48.9988 45.2885 47.7545 45.2521ZM37.2462 36.3708C37.5521 36.0659 37.9622 35.9328 38.501 35.9641C39.4493 36.0191 40.1466 35.975 40.6699 35.8901C40.306 37.0938 39.7361 37.8997 38.9692 38.2921C38.0813 38.7463 37.0834 38.5581 36.5345 38.3905C36.574 37.781 36.7406 36.8747 37.2462 36.3708ZM32.7047 34.2919C31.8866 34.0016 31.2146 33.2504 30.7002 32.0539C31.2736 32.0627 31.9899 32.0162 32.8396 31.9129C33.6283 31.817 34.2088 31.952 34.5654 32.3139C35.0091 32.7643 35.1002 33.543 35.094 34.0441C34.6196 34.2725 33.649 34.6271 32.7047 34.2919ZM28.6621 44.4126C28.6621 44.0718 28.9394 43.7944 29.2802 43.7944H42.0089C42.3497 43.7944 42.627 44.0717 42.627 44.4126V45.2503H28.6621V44.4126ZM35.7725 18.4936C36.1271 18.4936 36.4755 18.6147 36.7537 18.8348L44.9158 25.2918H24.1228L15.5294 18.4936H35.7725ZM18.908 36.9911V26.7566H23.1355V36.9911H18.908ZM23.1355 38.456V45.2503H18.908V38.456H23.1355ZM13.4229 18.695L21.7616 25.2918H5.08418L13.4229 18.695ZM3.71035 26.7566H7.93789V30.431C7.93789 30.8355 8.26572 31.1634 8.67031 31.1634C9.0749 31.1634 9.40273 30.8355 9.40273 30.431V26.7566H17.4432V36.9911H9.40273V33.8551C9.40273 33.4506 9.0749 33.1227 8.67031 33.1227C8.26572 33.1227 7.93789 33.4506 7.93789 33.8551V36.9911H3.71035V26.7566ZM17.4432 38.456V45.2503H9.40273V38.456H17.4432ZM3.71035 38.456H7.93789V45.2503H3.71035V38.456ZM47.6859 48.4137H2.31406C1.8458 48.4137 1.46484 48.0327 1.46484 47.5644C1.46484 47.096 1.8458 46.7151 2.31406 46.7151H47.6858C48.1541 46.7151 48.5351 47.0961 48.5351 47.5644C48.5351 48.0326 48.1542 48.4137 47.6859 48.4137Z" fill="#9CC216"/>
<path d="M43.2855 10.1887C45.1542 10.1887 46.6745 8.66843 46.6745 6.79958C46.6745 4.93083 45.1542 3.41052 43.2855 3.41052C41.4167 3.41052 39.8964 4.93083 39.8964 6.79958C39.8964 8.66843 41.4167 10.1887 43.2855 10.1887ZM43.2855 4.87546C44.3465 4.87546 45.2097 5.73865 45.2097 6.79968C45.2097 7.86072 44.3465 8.724 43.2855 8.724C42.2244 8.724 41.3612 7.86082 41.3612 6.79968C41.3612 5.73865 42.2244 4.87546 43.2855 4.87546Z" fill="#9CC216"/>
</svg>
