<svg width="50" height="48" viewBox="0 0 50 48" fill="none" xmlns="http://www.w3.org/2000/svg">
<path d="M49.2676 24.6274C49.6722 24.6274 50 24.2996 50 23.895V4.05837C50 2.12449 48.4267 0.551147 46.4928 0.551147H3.50723C1.57334 0.551147 0 2.12449 0 4.05837V33.9472C0 35.8811 1.57334 37.4545 3.50723 37.4545H19.9866L19.0904 41.225H18.3224C16.0812 41.225 14.2578 43.0483 14.2578 45.2895C14.2578 46.4802 15.2265 47.4488 16.4171 47.4488H33.5828C34.7734 47.4488 35.7421 46.4802 35.7421 45.2895C35.7421 43.0483 33.9188 41.225 31.6775 41.225H30.9095L30.0133 37.4545H46.4927C48.4266 37.4545 49.9999 35.8811 49.9999 33.9472V27.3191C49.9999 26.9145 49.6721 26.5867 49.2675 26.5867C48.8629 26.5867 48.5351 26.9145 48.5351 27.3191V30.2999H1.46484V4.05837C1.46484 2.9322 2.38105 2.01599 3.50723 2.01599H46.4928C47.6189 2.01599 48.5352 2.9322 48.5352 4.05837V23.895C48.5352 24.2995 48.863 24.6274 49.2676 24.6274ZM34.2773 45.2895C34.2773 45.6724 33.9658 45.984 33.5829 45.984H16.4171C16.0342 45.984 15.7227 45.6724 15.7227 45.2895C15.7227 43.856 16.8889 42.6898 18.3224 42.6898H31.6776C33.1111 42.6898 34.2773 43.856 34.2773 45.2895ZM29.4039 41.225H20.5961L21.4923 37.4545H28.5077L29.4039 41.225ZM48.5352 31.7647V33.9472C48.5352 35.0734 47.6189 35.9896 46.4928 35.9896H3.50723C2.38105 35.9896 1.46484 35.0734 1.46484 33.9472V31.7647H48.5352Z" fill="#9CC216"/>
</svg>
