<svg width="50" height="50" viewBox="0 0 50 50" fill="none" xmlns="http://www.w3.org/2000/svg">
<g clip-path="url(#clip0)">
<path d="M42.0741 2.81277C42.4787 2.81277 42.8065 2.48494 42.8065 2.08035V1.33142C42.8065 0.926831 42.4787 0.598999 42.0741 0.598999C41.6695 0.598999 41.3417 0.926831 41.3417 1.33142V2.08035C41.3417 2.48484 41.6695 2.81277 42.0741 2.81277Z" fill="#9CC216"/>
<path d="M41.3417 12.49V13.239C41.3417 13.6436 41.6695 13.9714 42.0741 13.9714C42.4787 13.9714 42.8065 13.6436 42.8065 13.239V12.49C42.8065 12.0854 42.4787 11.7576 42.0741 11.7576C41.6695 11.7576 41.3417 12.0855 41.3417 12.49Z" fill="#9CC216"/>
<path d="M46.2723 4.12288L46.802 3.59319C47.0881 3.30706 47.0881 2.84338 46.802 2.55735C46.5159 2.27141 46.0522 2.27141 45.7662 2.55735L45.2365 3.08704C44.9505 3.37317 44.9505 3.83684 45.2365 4.12288C45.5226 4.40891 45.9862 4.40881 46.2723 4.12288Z" fill="#9CC216"/>
<path d="M37.8759 10.4477L37.3463 10.9772C37.0603 11.2634 37.0603 11.7271 37.3463 12.0131C37.6325 12.2991 38.0961 12.299 38.3821 12.0131L38.9117 11.4835C39.1978 11.1974 39.1978 10.7337 38.9117 10.4477C38.6256 10.1618 38.1619 10.1618 37.8759 10.4477Z" fill="#9CC216"/>
<path d="M46.5467 7.28528C46.5467 7.68987 46.8746 8.0177 47.2791 8.0177H48.0281C48.4327 8.0177 48.7605 7.68987 48.7605 7.28528C48.7605 6.88069 48.4327 6.55286 48.0281 6.55286H47.2791C46.8746 6.55286 46.5467 6.88069 46.5467 7.28528Z" fill="#9CC216"/>
<path d="M36.1203 8.0177H36.8693C37.2739 8.0177 37.6017 7.68987 37.6017 7.28528C37.6017 6.88069 37.2739 6.55286 36.8693 6.55286H36.1203C35.7157 6.55286 35.3878 6.88069 35.3878 7.28528C35.3878 7.68987 35.7157 8.0177 36.1203 8.0177Z" fill="#9CC216"/>
<path d="M45.2366 10.4477C44.9506 10.7338 44.9506 11.1975 45.2367 11.4835L45.7664 12.0131C46.0522 12.2989 46.5162 12.2992 46.8021 12.013C47.0882 11.7269 47.0882 11.2632 46.802 10.9772L46.2723 10.4476C45.9862 10.1616 45.5224 10.1617 45.2366 10.4477Z" fill="#9CC216"/>
<path d="M37.8759 4.12268C38.1618 4.40862 38.6256 4.40891 38.9116 4.12278C39.1977 3.83674 39.1977 3.37297 38.9117 3.08704L38.3821 2.55735C38.0961 2.27131 37.6323 2.27122 37.3464 2.55725C37.0603 2.84329 37.0603 3.30705 37.3463 3.59299L37.8759 4.12268Z" fill="#9CC216"/>
<path d="M48.5303 45.1021C48.6692 43.5284 47.7896 42.086 46.3942 41.4694C46.3215 41.4373 46.272 41.3614 46.2681 41.2761C46.2014 39.8073 45.2597 38.5291 43.8722 38.0373V31.3426C43.8722 30.938 43.5443 30.6102 43.1397 30.6102C42.7352 30.6102 42.4073 30.938 42.4073 31.3426V34.1618H37.9723V24.8153H42.4073V27.9401C42.4073 28.3447 42.7352 28.6725 43.1397 28.6725C43.5443 28.6725 43.8722 28.3447 43.8722 27.9401C43.8722 26.5345 43.8722 22.5333 43.8722 21.1211C43.8722 20.6168 43.6191 20.1525 43.1952 19.8791L25.6659 8.57632C25.2613 8.31519 24.7384 8.31528 24.334 8.57622L12.41 16.2647C12.07 16.4839 11.9722 16.9373 12.1913 17.2772C12.4106 17.6173 12.8642 17.7149 13.2038 17.4959L25 9.8897L42.4013 21.11C42.405 21.1124 42.4073 21.1166 42.4073 21.1209V22.7389L25.6659 11.9442C25.2613 11.6831 24.7384 11.6832 24.334 11.9441L7.59268 22.739V21.121C7.59268 21.1167 7.59492 21.1125 7.59863 21.1102L10.3222 19.3541C10.6621 19.1349 10.76 18.6816 10.5408 18.3417C10.3215 18.0017 9.86816 17.9042 9.52832 18.123L6.80469 19.8792C6.38086 20.1525 6.12783 20.6168 6.12783 21.1211V38.0373C4.74189 38.5286 3.79873 39.8054 3.73193 41.2762C3.72803 41.3614 3.67852 41.4373 3.60605 41.4694C2.21357 42.0846 1.33037 43.524 1.46973 45.1022C0.613965 45.4084 0 46.2272 0 47.187C0 48.4078 0.993164 49.4009 2.21396 49.4009H47.786C49.0068 49.4009 50 48.4078 50 47.187C50 46.2272 49.386 45.4084 48.5303 45.1021ZM44.8048 41.3423C44.834 41.9879 45.216 42.55 45.802 42.8092C46.6188 43.1701 47.1563 44.019 47.072 44.9731H43.8722V39.6643C44.4121 40.0333 44.7731 40.6453 44.8048 41.3423ZM42.4073 35.6264V44.973H37.9723V35.6264H42.4073ZM31.5722 44.973L31.5721 35.6264H36.5074V44.973H31.5722ZM13.4926 44.973V35.6264H18.4278V44.973H13.4926ZM7.59268 44.973V35.6264H12.0277V44.973H7.59268ZM25.7324 23.3502V13.7298L40.6522 23.3502H25.7324ZM24.2676 23.3502H9.34775L24.2676 13.7299V23.3502ZM7.59268 24.8151H12.0277V34.1616H7.59268V24.8151ZM30.9779 30.0353H19.0221C18.6463 30.0353 18.3405 29.7295 18.3405 29.3538C18.3405 28.978 18.6463 28.6723 19.0221 28.6723H30.9779C31.3537 28.6723 31.6594 28.978 31.6594 29.3538V29.3539C31.6593 29.7304 31.3547 30.0353 30.9779 30.0353ZM19.8927 31.5001H30.1072L30.1073 44.9731H19.8927V31.5001ZM36.5074 34.1616H31.5721V31.4159C32.4524 31.1635 33.1242 30.3511 33.1242 29.3538C33.1242 28.1704 32.1614 27.2075 30.9779 27.2075H19.0221C17.8386 27.2075 16.8757 28.1703 16.8757 29.3538C16.8757 30.3311 17.5325 31.1574 18.4278 31.4158V34.1616H13.4926V24.8151H36.5074V34.1616ZM4.19834 42.809C4.78398 42.5499 5.16602 41.9879 5.19521 41.3423C5.22686 40.646 5.58721 40.0336 6.12783 39.6642V44.973H2.92803C2.8457 44.0418 3.35967 43.1794 4.19834 42.809ZM47.786 47.9361H2.21396C1.80098 47.9361 1.46484 47.6001 1.46484 47.187C1.46484 46.7739 1.80088 46.4378 2.21396 46.4378H47.786C48.199 46.4378 48.5352 46.7739 48.5352 47.187C48.5352 47.6001 48.1991 47.9361 47.786 47.9361Z" fill="#9CC216"/>
<path d="M42.0741 10.6779C43.9448 10.6779 45.4668 9.15596 45.4668 7.28525C45.4668 5.41455 43.9448 3.89258 42.0741 3.89258C40.2034 3.89258 38.6814 5.41455 38.6814 7.28525C38.6814 9.15596 40.2034 10.6779 42.0741 10.6779ZM42.0741 5.35732C43.1372 5.35732 44.0019 6.22207 44.0019 7.28516C44.0019 8.34824 43.1372 9.21299 42.0741 9.21299C41.011 9.21299 40.1463 8.34824 40.1463 7.28516C40.1463 6.22207 41.011 5.35732 42.0741 5.35732Z" fill="#9CC216"/>
</g>
<defs>
<clipPath id="clip0">
<rect width="50" height="50" fill="white"/>
</clipPath>
</defs>
</svg>
