<svg width="50" height="50" viewBox="0 0 50 50" fill="none" xmlns="http://www.w3.org/2000/svg">
<g clip-path="url(#clip0)">
<path d="M44.6528 11.0089H27.9536C27.549 11.0089 27.2212 11.3367 27.2212 11.7413C27.2212 12.1459 27.549 12.4738 27.9536 12.4738H44.6528C45.0574 12.4738 45.3853 12.1459 45.3853 11.7413C45.3853 11.3367 45.0574 11.0089 44.6528 11.0089Z" fill="#9CC216"/>
<path d="M44.6528 14.7417H27.9536C27.549 14.7417 27.2212 15.0695 27.2212 15.4741C27.2212 15.8787 27.549 16.2065 27.9536 16.2065H44.6528C45.0574 16.2065 45.3853 15.8787 45.3853 15.4741C45.3853 15.0695 45.0574 14.7417 44.6528 14.7417Z" fill="#9CC216"/>
<path d="M45.3853 19.2067C45.3853 18.8021 45.0574 18.4742 44.6528 18.4742H27.9536C27.549 18.4742 27.2212 18.8021 27.2212 19.2067C27.2212 19.6113 27.549 19.9391 27.9536 19.9391H44.6528C45.0574 19.9391 45.3853 19.6112 45.3853 19.2067Z" fill="#9CC216"/>
<path d="M27.9536 22.2069C27.549 22.2069 27.2212 22.5347 27.2212 22.9393C27.2212 23.3439 27.549 23.6718 27.9536 23.6718H36.3032C36.7078 23.6718 37.0356 23.3439 37.0356 22.9393C37.0356 22.5347 36.7078 22.2069 36.3032 22.2069H27.9536Z" fill="#9CC216"/>
<path d="M49.2676 25.6274C49.6722 25.6274 50 25.2996 50 24.895V5.05837C50 3.12449 48.4267 1.55115 46.4928 1.55115H3.50723C1.57334 1.55115 0 3.12449 0 5.05837V34.9472C0 36.8811 1.57334 38.4545 3.50723 38.4545H19.9866L19.0904 42.225H18.3224C16.0812 42.225 14.2578 44.0483 14.2578 46.2895C14.2578 47.4802 15.2265 48.4488 16.4171 48.4488H33.5828C34.7734 48.4488 35.7421 47.4802 35.7421 46.2895C35.7421 44.0483 33.9188 42.225 31.6775 42.225H30.9095L30.0133 38.4545H46.4927C48.4266 38.4545 49.9999 36.8811 49.9999 34.9472V28.3191C49.9999 27.9145 49.6721 27.5867 49.2675 27.5867C48.8629 27.5867 48.5351 27.9145 48.5351 28.3191V31.2999H1.46484V5.05837C1.46484 3.9322 2.38105 3.01599 3.50723 3.01599H46.4928C47.6189 3.01599 48.5352 3.9322 48.5352 5.05837V24.895C48.5352 25.2995 48.863 25.6274 49.2676 25.6274ZM34.2773 46.2895C34.2773 46.6724 33.9658 46.984 33.5829 46.984H16.4171C16.0342 46.984 15.7227 46.6724 15.7227 46.2895C15.7227 44.856 16.8889 43.6898 18.3224 43.6898H31.6776C33.1111 43.6898 34.2773 44.856 34.2773 46.2895ZM29.4039 42.225H20.5961L21.4923 38.4545H28.5077L29.4039 42.225ZM48.5352 32.7647V34.9472C48.5352 36.0734 47.6189 36.9896 46.4928 36.9896H3.50723C2.38105 36.9896 1.46484 36.0734 1.46484 34.9472V32.7647H48.5352Z" fill="#9CC216"/>
<path d="M5.34717 18.0322C4.94258 18.0322 4.61475 18.36 4.61475 18.7646V24.3686C4.61475 26.0067 5.94746 27.3395 7.58564 27.3395H21.11H21.1107C21.1113 27.3395 21.1119 27.3396 21.1126 27.3396C21.1138 27.3396 21.115 27.3393 21.1163 27.3393C22.7517 27.3359 24.0811 26.0046 24.0811 24.3686V10.284C24.0811 8.64592 22.7483 7.31311 21.1101 7.31311H7.58564C5.94756 7.31311 4.61475 8.64583 4.61475 10.284V15.3406C4.61475 15.7451 4.94258 16.073 5.34717 16.073C5.75176 16.073 6.07959 15.7451 6.07959 15.3406V10.284C6.07959 9.45354 6.75518 8.77796 7.58564 8.77796H21.11C21.9404 8.77796 22.6161 9.45354 22.6161 10.284V24.3687C22.6161 25.0755 22.1261 25.6684 21.4683 25.8298C20.0318 23.8431 17.6695 22.5587 15.0902 22.3501V21.7142C18.2993 22.4287 20.1909 20.3046 20.7892 17.0518C20.8449 16.7486 20.7302 16.4401 20.4897 16.2468C20.25 16.0541 19.9249 16.0087 19.6418 16.1281C17.9886 16.8251 16.5561 15.8671 15.0902 16.9233V16.4343C15.3636 13.9658 14.0133 12.0983 11.2857 12.4301C9.46377 12.6519 8.82979 12.5287 8.6792 12.4859C8.3834 12.4014 8.0668 12.4859 7.85195 12.7062C7.63652 12.9272 7.55996 13.2472 7.65195 13.5416L7.65205 13.5417C8.32754 15.6999 9.40146 17.0538 10.8438 17.5659C11.7457 17.8859 12.7058 17.8378 13.6254 17.5349V22.3488C11.0383 22.5523 8.66748 23.8381 7.22734 25.83C6.56963 25.6686 6.07959 25.0756 6.07959 24.3688V18.7648C6.07959 18.3601 5.75166 18.0322 5.34717 18.0322ZM15.7854 18.2487C16.5055 17.5276 17.3008 18.0693 19.1094 17.7833C18.4177 20.0445 16.9771 20.7711 15.0978 20.2034C15.1326 19.6591 15.2711 18.7638 15.7854 18.2487ZM14.3479 23.784C16.3583 23.784 18.2565 24.5616 19.5837 25.8746H9.11201C10.4392 24.5616 12.3374 23.784 14.3479 23.784ZM11.3339 16.1851C10.5416 15.9039 9.88945 15.1781 9.38848 14.0225C9.94844 14.0312 10.6417 13.9839 11.4627 13.884C12.8883 13.7102 13.6703 14.3023 13.6542 15.9473C13.189 16.1699 12.2487 16.5099 11.3339 16.1851Z" fill="#9CC216"/>
</g>
<defs>
<clipPath id="clip0">
<rect width="50" height="50" fill="white"/>
</clipPath>
</defs>
</svg>
