<svg width="50" height="50" viewBox="0 0 50 50" fill="none" xmlns="http://www.w3.org/2000/svg">
<g clip-path="url(#clip0)">
<path d="M43.5412 17.3835C42.6575 16.7806 42.3528 15.6434 42.8166 14.6793C42.9205 14.3035 44.305 12.5349 43.102 10.4512C41.8957 8.36162 39.6682 8.68037 39.2977 8.58428C38.231 8.504 37.3984 7.67148 37.3182 6.60469C37.2202 6.22734 37.5349 4.00332 35.4512 2.80039C33.3617 1.59404 31.592 2.98379 31.223 3.08584C30.2591 3.54971 29.1218 3.24492 28.5188 2.36123C28.2454 2.0834 27.4059 0 25 0C22.5872 0 21.7496 2.08848 21.481 2.36123C20.8781 3.24502 19.7409 3.54961 18.7768 3.08584C18.4011 2.98193 16.6325 1.59736 14.5488 2.80039C12.4593 4.00684 12.778 6.23428 12.6818 6.60479C12.6016 7.67148 11.769 8.5041 10.7022 8.58438C10.3249 8.68232 8.10087 8.36768 6.89784 10.4514C5.6915 12.5408 7.08124 14.3105 7.18329 14.6794C7.64716 15.6434 7.34247 16.7807 6.45868 17.3836C6.18085 17.657 4.09745 18.4966 4.09745 20.9025C4.09745 23.3153 6.18593 24.153 6.45868 24.4215C7.34238 25.0244 7.64706 26.1616 7.18329 27.1257C7.07939 27.5015 5.69492 29.2701 6.89784 31.3538C8.10429 33.4434 10.3317 33.1246 10.7022 33.2208C11.4365 33.2761 12.0598 33.6879 12.4031 34.2871L7.99658 43.6842C7.74921 44.2118 7.81943 44.8239 8.17988 45.2818C8.54032 45.7397 9.11904 45.9515 9.68993 45.8349L14.3537 44.8812C14.3826 44.8749 14.4112 44.8886 14.4254 44.9142L16.8002 49.2098C17.4055 50.3047 18.9964 50.2505 19.527 49.119L20.9422 46.1012C21.114 45.735 20.9562 45.2989 20.59 45.1271C20.224 44.9554 19.7878 45.1131 19.616 45.4793L18.2009 48.4972C18.1948 48.5101 18.1835 48.5341 18.1427 48.5355C18.1014 48.5354 18.089 48.5136 18.082 48.5011L15.7072 44.2055C15.3816 43.6164 14.7196 43.3114 14.0602 43.4461L9.39648 44.3998C9.38144 44.4028 9.35614 44.4081 9.33066 44.3757C9.30517 44.3434 9.3162 44.32 9.32265 44.3061L12.856 36.7712C13.0943 37.705 13.6983 38.5139 14.5486 39.0048C16.6384 40.2113 18.4078 38.8214 18.7768 38.7193C19.7407 38.2556 20.878 38.5602 21.4809 39.4439L22.0166 40.229C22.0285 40.2466 22.0417 40.263 22.0539 40.2803L21.0764 42.3649C20.9046 42.7312 21.0623 43.1672 21.4285 43.339C21.7924 43.5097 22.2297 43.3553 22.4025 42.9868L23.1862 41.3155C23.7292 41.631 24.3524 41.8053 24.9998 41.8053C25.6471 41.8053 26.2704 41.6311 26.8134 41.3155L30.4726 49.1191C31.0038 50.2518 32.5948 50.3037 33.1994 49.21L35.5742 44.9144C35.5884 44.8888 35.6172 44.8753 35.646 44.8813L40.3098 45.8351C40.881 45.952 41.4594 45.7398 41.8197 45.282C42.1803 44.8242 42.2505 44.212 42.0031 43.6844L37.5966 34.2872C37.9399 33.688 38.5632 33.2762 39.2976 33.2209C39.6749 33.123 41.8989 33.4376 43.1018 31.354C44.3082 29.2645 42.9184 27.4947 42.8164 27.1259C42.3525 26.1619 42.6573 25.0246 43.5409 24.4217C43.8187 24.1482 45.9022 23.3087 45.9022 20.9027C45.9024 18.4896 43.8141 17.6521 43.5412 17.3835ZM40.6691 44.3755C40.6437 44.4078 40.6185 44.4027 40.6034 44.3996L35.9396 43.4459C35.2803 43.3113 34.6183 43.6162 34.2927 44.2053L31.9178 48.501C31.9109 48.5134 31.8988 48.5352 31.8572 48.5354C31.8164 48.534 31.8051 48.51 31.799 48.497L27.946 40.2801C27.9582 40.2628 27.9714 40.2464 27.9833 40.2288L28.5189 39.4437C29.1219 38.5601 30.2591 38.2553 31.2231 38.7191C31.5989 38.823 33.3677 40.2076 35.4513 39.0046C36.3016 38.5137 36.9056 37.7048 37.1438 36.771L40.6771 44.306C40.6837 44.3198 40.6946 44.3432 40.6691 44.3755ZM42.7157 23.2115C41.2292 24.2258 40.7165 26.1391 41.4968 27.7607C41.643 28.2298 42.5973 29.2986 41.8335 30.6215C41.0706 31.9429 39.6759 31.6502 39.1877 31.7602C37.3932 31.8952 35.9925 33.2958 35.8574 35.0904C35.7495 35.5697 36.0416 36.9725 34.7187 37.7362C33.3974 38.4991 32.3357 37.5483 31.858 37.3995C30.2362 36.6191 28.3231 37.1318 27.3088 38.6185C26.9848 38.9438 26.5661 40.3404 24.9998 40.3404C23.4302 40.3404 23.0447 38.9737 22.6908 38.6184C21.9949 37.5984 20.876 37.0369 19.7183 37.0369C17.7337 37.0369 16.9929 38.7245 15.281 37.7362C14.6568 37.3758 14.2678 36.7569 14.2138 36.0382L14.1425 35.0904C14.0074 33.2959 12.6068 31.8952 10.8122 31.7602C10.3281 31.6512 8.93007 31.9442 8.1664 30.6215C7.40341 29.3002 8.35429 28.2386 8.50312 27.7608C9.28349 26.1392 8.77079 24.226 7.28417 23.2116C6.91943 22.8752 5.5622 22.43 5.5622 20.9025C5.5622 19.3768 6.9164 18.9328 7.28417 18.5936C8.77079 17.5793 9.28349 15.6661 8.50312 14.0443C8.35693 13.5753 7.40253 12.5064 8.1664 11.1837C8.92929 9.8623 10.324 10.1549 10.8122 10.045C12.6067 9.90996 14.0074 8.50938 14.1425 6.71475C14.2504 6.23545 13.9583 4.83262 15.2811 4.06895C16.6026 3.30615 17.6641 4.25684 18.1418 4.40576C19.76 5.18438 21.6746 4.67646 22.691 3.18682C23.0241 2.82568 23.4725 1.46484 25 1.46484C26.5258 1.46484 26.9698 2.81904 27.3091 3.18682C28.3233 4.67344 30.2368 5.18604 31.8583 4.40576C32.3273 4.25947 33.3962 3.30518 34.7189 4.06895C36.0403 4.83184 35.7477 6.22656 35.8576 6.71475C35.9927 8.50928 37.3932 9.90996 39.1879 10.045C39.672 10.154 41.0699 9.86094 41.8337 11.1837C42.5966 12.5051 41.6458 13.5666 41.4969 14.0443C40.7165 15.6661 41.2292 17.5793 42.7158 18.5936C43.0769 18.9267 44.4379 19.3751 44.4379 20.9025C44.4378 22.4282 43.0835 22.8723 42.7157 23.2115Z" fill="#9CC216"/>
<path d="M25 6.61902C17.1241 6.61902 10.7166 13.0265 10.7166 20.9024C10.7166 28.7783 17.1241 35.1859 25 35.1859C28.4536 35.1859 31.7871 33.9369 34.3864 31.6689C36.9604 29.423 38.6467 26.3339 39.1347 22.9703C39.1928 22.57 38.9154 22.1984 38.5151 22.1404C38.1149 22.0826 37.7433 22.3597 37.6852 22.76C36.7742 29.039 31.3652 33.7212 25 33.7212C17.9317 33.7212 12.1813 27.9708 12.1813 20.9025C12.1813 13.8343 17.9317 8.08376 25 8.08376C31.5446 8.08376 37.0216 12.9814 37.7402 19.4761C37.7847 19.8781 38.1463 20.1675 38.5487 20.1234C38.9507 20.0789 39.2406 19.717 39.1961 19.3149C38.3953 12.0771 32.2923 6.61902 25 6.61902Z" fill="#9CC216"/>
<path d="M34.4877 18.7358C34.6095 18.0623 34.0201 17.4725 33.3469 17.5951C32.5348 17.742 30.5145 18.1916 28.595 19.2782C28.1055 16.3472 26.5481 13.8352 25.8366 12.8093C25.4318 12.2259 24.5681 12.226 24.1633 12.8094C23.4519 13.8353 21.8944 16.3473 21.4049 19.2782C19.4855 18.1916 17.4651 17.742 16.6532 17.5951C15.978 17.4732 15.3903 18.0634 15.5122 18.7358C15.9931 21.3928 17.242 24.3784 19.3372 26.1319H16.9441C16.5396 26.1319 16.2117 26.4598 16.2117 26.8642C16.2117 27.2686 16.5397 27.5965 16.9441 27.5965H33.0561C33.4605 27.5965 33.7884 27.2686 33.7884 26.8642C33.7884 26.4598 33.4604 26.1319 33.0561 26.1319H30.6627C32.7582 24.3781 34.0067 21.3923 34.4877 18.7358ZM24.9999 14.2009C25.7337 15.3675 26.9932 17.6882 27.2382 20.1846C26.2491 20.9648 25.4989 21.872 24.9999 22.886C24.5009 21.8721 23.7507 20.9648 22.7616 20.1846C23.0065 17.6883 24.2662 15.3674 24.9999 14.2009ZM17.1046 19.1859C20.8737 20.0781 24.2673 22.2553 24.2676 26.1156V26.1319H22.3967C18.9158 25.1608 17.5485 21.0335 17.1046 19.1859ZM25.7322 26.1318V26.1155C25.7325 22.2615 29.1163 20.0802 32.8952 19.1858C32.4514 21.0331 31.0842 25.1606 27.6031 26.1318H25.7322Z" fill="#9CC216"/>
</g>
<defs>
<clipPath id="clip0">
<rect width="50" height="50" fill="white"/>
</clipPath>
</defs>
</svg>
